<svg width="128" height="20" viewBox="0 0 128 20" fill="none" xmlns="http://www.w3.org/2000/svg">
<g clip-path="url(#clip0_5236_9216)">
<path d="M0 3.42334H13.5663V8.06024H5.41623V10.1241H12.9858V14.3445H5.41623V19.6535C2.42505 19.6535 0 17.2248 0 14.229V3.42334Z" fill="#16A34A"/>
<path d="M37.3578 11.3982L32.1021 3.42334H36.6805C37.6625 3.42334 38.5703 3.93672 39.0788 4.77792L40.6001 7.29533L42.142 4.76761C42.6505 3.93259 43.5563 3.42334 44.5342 3.42334H49.0034L43.7478 11.3302L49.234 19.6535H44.6494C43.6716 19.6535 42.7658 19.1443 42.2573 18.3072L40.5075 15.4331L38.735 18.3175C38.2245 19.1484 37.3207 19.6535 36.347 19.6535H31.8716L37.3578 11.4003V11.3982Z" fill="#16A34A"/>
<path d="M16.4238 16.0764C16.5618 16.2847 16.7079 16.4908 16.8664 16.6991C16.7079 16.4991 16.5597 16.2908 16.4238 16.0764Z" fill="#16A34A"/>
<path d="M19.4087 13.7756C19.559 13.9962 19.7216 14.2065 19.8945 14.4065C19.8225 14.3302 19.6207 14.1117 19.4087 13.7756Z" fill="#16A34A"/>
<path d="M16.8682 16.6992C16.8765 16.7095 16.8869 16.7219 16.8974 16.7322C16.8974 16.7322 16.8786 16.7095 16.8702 16.6992H16.8682Z" fill="#16A34A"/>
<path d="M19.9235 14.4352C19.9235 14.4352 19.9152 14.427 19.9131 14.4229L19.9256 14.4352H19.9235Z" fill="#16A34A"/>
<path d="M22.5406 0.0978244C22.5302 0.0524657 22.5114 0.0256628 22.501 0.0112305C22.5156 0.0400951 22.5281 0.0689598 22.5406 0.0978244Z" fill="#16A34A"/>
<path d="M30.3319 5.59043C31.2932 6.76976 31.8717 8.27278 31.8717 9.91188C31.8717 13.689 28.8147 16.7507 25.0433 16.7507C23.314 16.7507 21.7371 16.1054 20.5328 15.0436C20.047 14.5859 18.7192 13.0355 20.6913 11.2458C20.6913 11.2458 19.6064 10.6232 18.8077 12.1138C18.6965 11.0582 19.0589 9.7387 20.6913 8.36969C22.2044 7.10377 23.1864 5.30591 23.2481 3.31425C23.2502 3.24209 23.2502 3.17199 23.2502 3.10189C23.2481 2.1308 23.0238 1.11641 22.5379 0.0979004C22.6017 0.367991 22.3835 1.26486 18.6348 3.42352C15.1042 5.45642 13.2124 11.1098 16.3538 15.9735C16.3744 16.0085 16.3971 16.0415 16.4218 16.0766C16.5597 16.2848 16.7059 16.491 16.8644 16.6992C16.8726 16.7095 16.8829 16.7219 16.8932 16.7322C18.4804 18.728 21.0022 20.0001 23.9275 20.0001C28.9279 20.0001 32.794 16.2436 32.794 11.5366V11.4912C32.794 9.17377 31.8676 7.09964 30.3298 5.59043H30.3319ZM22.5235 1.1762C22.5235 1.1762 23.6187 3.29569 22.1591 5.23375L21.9944 4.21111L19.7588 5.23375L20.3352 3.42352L18.9477 3.73691C18.9477 3.73691 22.3835 1.64216 22.5235 1.17826V1.1762Z" fill="#16A34A"/>
<path d="M22.4927 0.000976562C22.4927 0.000976562 22.4968 0.00510008 22.4989 0.00922361C22.4989 0.00922361 22.4989 0.00716185 22.4989 0.00510008C22.4968 0.00510008 22.4948 0.00303832 22.4927 0.000976562Z" fill="#16A34A"/>
<path d="M27.7769 4.70169C25.9962 4.16564 24.1517 4.69139 22.9165 5.91401C24.0549 5.20683 25.4465 4.92436 26.8341 5.19652C28.5077 5.6233 28.553 6.60676 28.553 6.60676C28.7856 6.44594 28.5612 5.86659 28.553 5.84803C30.0743 6.74078 31.0604 8.31802 31.223 10.0499C31.5359 7.70156 30.1134 5.40888 27.7769 4.70376V4.70169Z" fill="#16A34A"/>
<path d="M48.3262 11.6252V11.5799C48.3262 6.87495 52.0358 3.36377 57.0033 3.36377C59.7 3.36377 61.8801 4.26476 63.5888 5.74923L60.645 9.30577C59.6115 8.42745 58.4649 7.93263 57.1618 7.93263C55.1155 7.93263 53.6333 9.50782 53.6333 11.6479V11.6933C53.6333 13.922 55.1834 15.4519 57.3862 15.4519C58.2858 15.4519 58.7798 15.3179 59.1833 15.0911V13.5159L56.4865 10.1387H64.1055V17.4332C62.3968 18.829 60.015 19.796 57.1597 19.796C52.2602 19.796 48.3262 16.5096 48.3262 11.6232V11.6252Z" fill="#F8FAFC"/>
<path d="M65.6328 3.7019H73.3197C76.1071 3.7019 77.8837 4.39878 78.985 5.50182C79.9299 6.44817 80.424 7.61719 80.424 9.2398V9.28515C80.424 11.582 79.2321 13.1798 77.3217 14.1035L80.986 19.462H76.5682C75.578 19.462 74.6557 18.9651 74.1102 18.1384L72.0166 14.9612H70.8926V19.4641H65.6328V3.7019ZM73.1632 11.1985C74.4211 11.1985 75.1869 10.6356 75.1869 9.66864V9.62328C75.1869 8.61096 74.4005 8.11407 73.1859 8.11407H70.8926V11.1985H73.1632Z" fill="#F8FAFC"/>
<path d="M81.7046 3.7019H95.1227V8.02336H86.8738V9.62122H94.5607V13.4252H86.8738V15.1364H95.2359V19.4579H81.7046V3.7019Z" fill="#F8FAFC"/>
<path d="M96.6504 3.7019H110.068V8.02336H101.82V9.62122H109.506V13.4252H101.82V15.1364H110.182V19.4579H96.6504V3.7019Z" fill="#F8FAFC"/>
<path d="M111.598 3.7019C114.71 3.7019 117.656 5.11421 119.61 7.5409L122.117 10.6583V8.92434C122.117 6.03994 124.452 3.7019 127.332 3.7019V19.4599H122.657L116.812 12.1881V19.4599H111.598V3.7019Z" fill="#F8FAFC"/>
</g>
<defs>
<clipPath id="clip0_5236_9216">
<rect width="127.429" height="20" fill="white"/>
</clipPath>
</defs>
</svg>
