<svg xmlns="http://www.w3.org/2000/svg" width="128" height="20" viewBox="0 0 128 20" fill="none">
<path d="M0 3.42334H13.5663V8.06024H5.41623V10.1241H12.9858V14.3445H5.41623V19.6535C2.42505 19.6535 0 17.2248 0 14.229V3.42334Z" fill="#16A34A"/>
<path d="M37.3578 11.3982L32.1021 3.42334H36.6805C37.6625 3.42334 38.5703 3.93672 39.0788 4.77792L40.6001 7.29533L42.142 4.76761C42.6505 3.93259 43.5563 3.42334 44.5342 3.42334H49.0034L43.7478 11.3302L49.234 19.6535H44.6494C43.6716 19.6535 42.7658 19.1443 42.2573 18.3072L40.5075 15.4331L38.735 18.3175C38.2245 19.1484 37.3207 19.6535 36.347 19.6535H31.8716L37.3578 11.4003V11.3982Z" fill="#16A34A"/>
<path d="M16.4236 16.0764C16.5615 16.2847 16.7077 16.4908 16.8662 16.6991C16.7077 16.4991 16.5595 16.2908 16.4236 16.0764Z" fill="#16A34A"/>
<path d="M19.4087 13.7756C19.559 13.9962 19.7216 14.2065 19.8945 14.4065C19.8225 14.3302 19.6207 14.1117 19.4087 13.7756Z" fill="#16A34A"/>
<path d="M16.8684 16.6992C16.8768 16.7095 16.8872 16.7219 16.8976 16.7322C16.8976 16.7322 16.8788 16.7095 16.8705 16.6992H16.8684Z" fill="#16A34A"/>
<path d="M19.9235 14.4352C19.9235 14.4352 19.9152 14.427 19.9131 14.4229L19.9256 14.4352H19.9235Z" fill="#16A34A"/>
<path d="M22.5404 0.0978244C22.5299 0.0524657 22.5112 0.0256628 22.5007 0.0112305C22.5153 0.0400951 22.5279 0.0689598 22.5404 0.0978244Z" fill="#16A34A"/>
<path d="M30.3316 5.59043C31.293 6.76976 31.8715 8.27278 31.8715 9.91188C31.8715 13.689 28.8144 16.7507 25.043 16.7507C23.3138 16.7507 21.7369 16.1054 20.5326 15.0436C20.0467 14.5859 18.7189 13.0355 20.6911 11.2458C20.6911 11.2458 19.6062 10.6232 18.8075 12.1138C18.6963 11.0582 19.0586 9.7387 20.6911 8.36969C22.2042 7.10377 23.1861 5.30591 23.2479 3.31425C23.25 3.24209 23.25 3.17199 23.25 3.10189C23.2479 2.1308 23.0235 1.11641 22.5377 0.0979004C22.6015 0.367991 22.3833 1.26486 18.6345 3.42352C15.104 5.45642 13.2121 11.1098 16.3536 15.9735C16.3742 16.0085 16.3968 16.0415 16.4215 16.0766C16.5594 16.2848 16.7056 16.491 16.8641 16.6992C16.8724 16.7095 16.8826 16.7219 16.8929 16.7322C18.4801 18.728 21.0019 20.0001 23.9272 20.0001C28.9276 20.0001 32.7937 16.2436 32.7937 11.5366V11.4912C32.7937 9.17377 31.8673 7.09964 30.3296 5.59043H30.3316ZM22.5233 1.1762C22.5233 1.1762 23.6185 3.29569 22.1589 5.23375L21.9942 4.21111L19.7585 5.23375L20.335 3.42352L18.9474 3.73691C18.9474 3.73691 22.3833 1.64216 22.5233 1.17826V1.1762Z" fill="#16A34A"/>
<path d="M22.4924 0.000976562C22.4924 0.000976562 22.4966 0.00510008 22.4987 0.00922361C22.4987 0.00922361 22.4987 0.00716185 22.4987 0.00510008C22.4966 0.00510008 22.4945 0.00303832 22.4924 0.000976562Z" fill="#16A34A"/>
<path d="M27.7769 4.70169C25.9962 4.16564 24.1517 4.69139 22.9165 5.91401C24.0549 5.20683 25.4465 4.92436 26.8341 5.19652C28.5077 5.6233 28.553 6.60676 28.553 6.60676C28.7856 6.44594 28.5612 5.86659 28.553 5.84803C30.0743 6.74078 31.0604 8.31802 31.223 10.0499C31.5359 7.70156 30.1134 5.40888 27.7769 4.70376V4.70169Z" fill="#16A34A"/>
<path d="M48.3262 11.6252V11.5799C48.3262 6.87495 52.0358 3.36377 57.0033 3.36377C59.7 3.36377 61.8801 4.26476 63.5888 5.74923L60.645 9.30577C59.6115 8.42745 58.4649 7.93263 57.1618 7.93263C55.1155 7.93263 53.6333 9.50782 53.6333 11.6479V11.6933C53.6333 13.922 55.1834 15.4519 57.3862 15.4519C58.2858 15.4519 58.7798 15.3179 59.1833 15.0911V13.5159L56.4865 10.1387H64.1055V17.4332C62.3968 18.829 60.015 19.796 57.1597 19.796C52.2602 19.796 48.3262 16.5096 48.3262 11.6232V11.6252Z" fill="#0F172A"/>
<path d="M65.6331 3.7019H73.3199C76.1073 3.7019 77.8839 4.39878 78.9853 5.50182C79.9302 6.44817 80.4242 7.61719 80.4242 9.2398V9.28515C80.4242 11.582 79.2323 13.1798 77.3219 14.1035L80.9862 19.462H76.5684C75.5782 19.462 74.656 18.9651 74.1105 18.1384L72.0168 14.9612H70.8928V19.4641H65.6331V3.7019ZM73.1635 11.1985C74.4213 11.1985 75.1871 10.6356 75.1871 9.66864V9.62328C75.1871 8.61096 74.4007 8.11407 73.1861 8.11407H70.8928V11.1985H73.1635Z" fill="#0F172A"/>
<path d="M81.7046 3.7019H95.1227V8.02336H86.8738V9.62122H94.5607V13.4252H86.8738V15.1364H95.2359V19.4579H81.7046V3.7019Z" fill="#0F172A"/>
<path d="M96.6501 3.7019H110.068V8.02336H101.819V9.62122H109.506V13.4252H101.819V15.1364H110.181V19.4579H96.6501V3.7019Z" fill="#0F172A"/>
<path d="M111.598 3.7019C114.711 3.7019 117.656 5.11421 119.61 7.5409L122.117 10.6583V8.92434C122.117 6.03994 124.452 3.7019 127.332 3.7019V19.4599H122.657L116.812 12.1881V19.4599H111.598V3.7019Z" fill="#0F172A"/>
</svg>