<svg width="102" height="40" viewBox="0 0 102 40" fill="none" xmlns="http://www.w3.org/2000/svg">
<path d="M46.4521 27.2818C46.3373 27.2818 46.2296 27.2388 46.129 27.1527C46.0429 27.0522 46 26.9446 46 26.8298C46 26.7437 46.0071 26.6791 46.0216 26.6361L51.0364 12.8396C51.1799 12.4235 51.4669 12.2155 51.8974 12.2155H55.255C55.6855 12.2155 55.9725 12.4235 56.116 12.8396L61.1308 26.6361C61.1453 26.6791 61.1524 26.7437 61.1524 26.8298C61.1524 26.9446 61.1021 27.0522 61.0018 27.1527C60.9157 27.2388 60.8154 27.2818 60.7006 27.2818H57.9025C57.5581 27.2818 57.314 27.124 57.1705 26.8083L56.3959 24.7205H50.7565L49.9819 26.8083C49.8384 27.124 49.5943 27.2818 49.2499 27.2818H46.4521ZM51.6607 21.492H55.4917L53.5762 16.0035L51.6607 21.492Z" fill="black"/>
<path d="M67.6856 27.2816C64.6437 27.2816 63.1226 25.8539 63.1226 22.9985V19.0166H61.4225C61.279 19.0166 61.1497 18.9664 61.0349 18.866C60.9346 18.7512 60.8843 18.622 60.8843 18.4785V16.6275C60.8843 16.4697 60.9346 16.3406 61.0349 16.2401C61.1497 16.1397 61.279 16.0894 61.4225 16.0894H63.1226V12.5381C63.1226 12.3803 63.1729 12.2511 63.2735 12.1507C63.3883 12.0502 63.5173 12 63.6608 12H66.3083C66.466 12 66.5953 12.0502 66.6956 12.1507C66.7962 12.2511 66.8462 12.3803 66.8462 12.5381V16.0894H69.5366C69.6946 16.0894 69.8236 16.1397 69.9242 16.2401C70.039 16.3406 70.0964 16.4697 70.0964 16.6275V18.4785C70.0964 18.6364 70.039 18.7655 69.9242 18.866C69.8236 18.9664 69.6946 19.0166 69.5366 19.0166H66.8462V22.6756C66.8462 23.1778 66.9397 23.558 67.1261 23.8163C67.3125 24.0746 67.614 24.2038 68.03 24.2038H69.7304C69.8884 24.2038 70.0174 24.2612 70.118 24.3759C70.2183 24.4764 70.2686 24.6055 70.2686 24.7634V26.7435C70.2686 26.887 70.2183 27.0162 70.118 27.131C70.0174 27.2314 69.8884 27.2816 69.7304 27.2816H67.6856Z" fill="black"/>
<path d="M72.5638 27.2816C72.4058 27.2816 72.2697 27.2314 72.1549 27.131C72.0543 27.0305 72.0043 26.9014 72.0043 26.7435V12.5381C72.0043 12.3803 72.0543 12.2511 72.1549 12.1507C72.2697 12.0502 72.4058 12 72.5638 12H75.2542C75.4118 12 75.5412 12.0502 75.6414 12.1507C75.7421 12.2511 75.7924 12.3803 75.7924 12.5381V26.7435C75.7924 26.887 75.7421 27.0162 75.6414 27.131C75.5412 27.2314 75.4118 27.2816 75.2542 27.2816H72.5638Z" fill="black"/>
<path d="M81.6259 27.4969C80.8655 27.4969 80.1696 27.3535 79.5382 27.0665C78.921 26.7651 78.4334 26.3562 78.0745 25.8397C77.7301 25.3231 77.5579 24.7563 77.5579 24.1393C77.5579 23.1636 77.9597 22.3744 78.7633 21.7717C79.5811 21.1547 80.7004 20.7314 82.1209 20.5019L84.79 20.0929V19.8346C84.79 19.3037 84.6823 18.9163 84.4669 18.6724C84.2518 18.4284 83.8857 18.3065 83.3691 18.3065C83.0821 18.3065 82.8384 18.3567 82.6375 18.4571C82.4511 18.5576 82.2357 18.7082 81.9919 18.9091C81.8052 19.0669 81.6404 19.1817 81.4969 19.2535C81.4395 19.3539 81.3676 19.4042 81.2815 19.4042H78.7849C78.6414 19.4042 78.5195 19.3611 78.4189 19.275C78.3328 19.1746 78.297 19.0598 78.3112 18.9306C78.3257 18.5432 78.5195 18.1127 78.8923 17.6392C79.2654 17.1514 79.8323 16.7353 80.5927 16.3909C81.3534 16.0465 82.2931 15.8743 83.4124 15.8743C85.1914 15.8743 86.5117 16.2689 87.3727 17.0581C88.2337 17.8329 88.6642 18.8876 88.6642 20.222V26.7436C88.6642 26.8871 88.6138 27.0163 88.5132 27.1311C88.4129 27.2315 88.2836 27.2817 88.126 27.2817H85.4784C85.3349 27.2817 85.206 27.2315 85.0912 27.1311C84.9905 27.0163 84.9406 26.8871 84.9406 26.7436V25.9903C84.6249 26.4351 84.1873 26.801 83.6275 27.088C83.068 27.3606 82.4008 27.4969 81.6259 27.4969ZM82.702 24.9572C83.3334 24.9572 83.8429 24.7491 84.2302 24.333C84.632 23.9169 84.8329 23.3142 84.8329 22.525V22.2668L83.0464 22.5681C81.841 22.7977 81.2386 23.2281 81.2386 23.8595C81.2386 24.1895 81.3747 24.455 81.6475 24.6559C81.9345 24.8568 82.286 24.9572 82.702 24.9572Z" fill="black"/>
<path d="M95.6975 27.4969C94.5208 27.4969 93.5378 27.3319 92.7488 27.0019C91.9597 26.6719 91.3712 26.2773 90.9839 25.8181C90.6108 25.3589 90.4244 24.9429 90.4244 24.5698C90.4244 24.4263 90.4744 24.3115 90.575 24.2254C90.6898 24.125 90.8117 24.0747 90.9407 24.0747H93.5453C93.631 24.0747 93.703 24.1034 93.7604 24.1608C94.0042 24.3187 94.1405 24.4119 94.1692 24.4406C94.4421 24.6415 94.6929 24.7994 94.9225 24.9142C95.1667 25.0146 95.4537 25.0648 95.7836 25.0648C96.1708 25.0648 96.4865 24.9931 96.7307 24.8496C96.989 24.6917 97.1179 24.4765 97.1179 24.2039C97.1179 23.9743 97.0464 23.7878 96.9029 23.6443C96.7735 23.5008 96.5152 23.3644 96.128 23.2353C95.7549 23.0918 95.1809 22.9483 94.4059 22.8049C91.9236 22.3026 90.6824 21.1547 90.6824 19.3611C90.6824 18.7728 90.8691 18.2132 91.2422 17.6823C91.6295 17.137 92.1893 16.6994 92.921 16.3694C93.6672 16.0393 94.5569 15.8743 95.5897 15.8743C96.6375 15.8743 97.5414 16.0393 98.3017 16.3694C99.0766 16.685 99.6648 17.0724 100.067 17.5316C100.468 17.9764 100.669 18.3854 100.669 18.7585C100.669 18.8876 100.619 19.0024 100.519 19.1028C100.433 19.2033 100.325 19.2535 100.196 19.2535H97.8284C97.699 19.2535 97.5988 19.2248 97.5268 19.1674C97.3546 19.0813 97.1824 18.9737 97.0102 18.8445C96.7519 18.6724 96.5227 18.5432 96.3218 18.4571C96.1351 18.3567 95.8913 18.3065 95.5897 18.3065C95.2312 18.3065 94.9512 18.3854 94.7503 18.5432C94.5494 18.7011 94.4492 18.9019 94.4492 19.1459C94.4492 19.3611 94.5066 19.5405 94.6214 19.684C94.7503 19.8131 95.0016 19.9422 95.3747 20.0714C95.7619 20.2005 96.343 20.3368 97.1179 20.4803C98.5243 20.7243 99.5429 21.1619 100.174 21.7933C100.82 22.4102 101.143 23.1349 101.143 23.9671C101.143 25.0433 100.662 25.9042 99.701 26.5499C98.7539 27.1813 97.4195 27.4969 95.6975 27.4969Z" fill="black"/>
<path fill-rule="evenodd" clip-rule="evenodd" d="M17.0449 0L28.9992 2.04929L38.6818 11.9018L37.1681 18.4768L40.1748 24.627L33.1662 35.2255L20.7215 39.9343L6.70239 35.2049L0 17.276L5.15723 6.27387L12.0294 5.01561L17.0449 0ZM10.0228 7.02217L6.26464 7.71029L3.5558 13.4891L10.0228 7.02217ZM3.09221 20.943L7.23525 32.0256L8.69779 27.0955L3.09221 20.943ZM9.96653 28.488L8.77857 32.4926L11.6745 30.3627L9.96653 28.488ZM12.9806 29.4021L10.5023 26.682L11.3259 23.9056L16.5765 26.7575L12.9806 29.4021ZM12.7665 31.5611L9.04922 34.2949L18.0122 37.3187L12.7665 31.5611ZM20.9329 38.1304L14.0725 30.6006L18.1419 27.6077L30.7065 34.4323L20.9329 38.1304ZM34.4226 30.4023L38.3213 24.5068L36.5935 20.9726L34.4226 30.4023ZM35.4687 18.6717L32.0898 33.3487L19.5769 26.5523L34.0998 15.8715L35.4687 18.6717ZM36.0433 16.176L36.5238 14.0888L35.42 14.9007L36.0433 16.176ZM34.7002 13.4285L34.7505 13.3914L34.6864 13.4003L34.7002 13.4285ZM33.9414 11.8764L36.0998 11.5748L31.5112 6.90566L33.9414 11.8764ZM28.1507 3.70298L32.2614 12.1112L14.0706 14.6531L16.6969 5.80016L28.1507 3.70298ZM23.9876 2.82606L17.2111 4.06683L17.8893 1.78063L23.9876 2.82606ZM15.6435 3.68164L14.8207 4.50452L15.4327 4.39246L15.6435 3.68164ZM14.9185 6.12579L12.8141 6.51108L3.14539 16.1798L12.3161 14.8983L14.9185 6.12579ZM11.8123 16.5967L3.40933 17.7709L10.3462 21.5387L11.8123 16.5967ZM11.7947 22.3254L18.0116 25.7021L33.38 14.3994L33.0063 13.6351L13.5668 16.3515L11.7947 22.3254ZM9.87746 23.1189L9.23355 25.2895L4.68768 20.3001L9.87746 23.1189Z" fill="#4678EE"/>
</svg>
