<svg width="41" height="40" viewBox="0 0 41 40" fill="none" xmlns="http://www.w3.org/2000/svg">
<path fill-rule="evenodd" clip-rule="evenodd" d="M17.0449 0L28.9992 2.04929L38.6818 11.9018L37.1681 18.4768L40.1748 24.627L33.1662 35.2255L20.7215 39.9343L6.70239 35.2049L0 17.276L5.15723 6.27387L12.0294 5.01561L17.0449 0ZM10.0228 7.02217L6.26464 7.71029L3.5558 13.4891L10.0228 7.02217ZM3.09221 20.943L7.23525 32.0256L8.69779 27.0955L3.09221 20.943ZM9.96653 28.488L8.77857 32.4926L11.6745 30.3627L9.96653 28.488ZM12.9806 29.4021L10.5023 26.682L11.3259 23.9056L16.5765 26.7575L12.9806 29.4021ZM12.7665 31.5611L9.04922 34.2949L18.0122 37.3187L12.7665 31.5611ZM20.9329 38.1304L14.0725 30.6006L18.1419 27.6077L30.7065 34.4323L20.9329 38.1304ZM34.4226 30.4023L38.3213 24.5068L36.5935 20.9726L34.4226 30.4023ZM35.4687 18.6717L32.0898 33.3487L19.5769 26.5523L34.0998 15.8715L35.4687 18.6717ZM36.0433 16.176L36.5238 14.0888L35.42 14.9007L36.0433 16.176ZM34.7002 13.4285L34.7505 13.3914L34.6864 13.4003L34.7002 13.4285ZM33.9414 11.8764L36.0998 11.5748L31.5112 6.90566L33.9414 11.8764ZM28.1507 3.70298L32.2614 12.1112L14.0706 14.6531L16.6969 5.80016L28.1507 3.70298ZM23.9876 2.82606L17.2111 4.06683L17.8893 1.78063L23.9876 2.82606ZM15.6435 3.68164L14.8207 4.50452L15.4327 4.39246L15.6435 3.68164ZM14.9185 6.12579L12.8141 6.51108L3.14539 16.1798L12.3161 14.8983L14.9185 6.12579ZM11.8123 16.5967L3.40933 17.7709L10.3462 21.5387L11.8123 16.5967ZM11.7947 22.3254L18.0116 25.7021L33.38 14.3994L33.0063 13.6351L13.5668 16.3515L11.7947 22.3254ZM9.87746 23.1189L9.23355 25.2895L4.68768 20.3001L9.87746 23.1189Z" fill="#4678EE"/>
</svg>
