<svg width="568" height="776" viewBox="0 0 568 776" fill="none" xmlns="http://www.w3.org/2000/svg">
<path d="M606.757 214.817C644.215 260.767 666.754 319.33 666.754 383.194C666.754 530.364 547.642 649.658 400.696 649.658C333.32 649.658 271.879 624.513 224.956 583.142C206.026 565.308 154.29 504.898 231.132 435.169C231.132 435.169 188.861 410.909 157.739 468.989C153.408 427.859 167.525 376.446 231.132 323.105C290.086 273.781 328.347 203.731 330.753 126.129C330.833 123.318 330.833 120.586 330.833 117.855C330.753 80.0185 322.01 40.4948 303.08 0.810425C305.567 11.334 297.065 46.2787 151.002 130.387C13.441 209.595 -60.2722 429.867 62.1287 619.372C62.9308 620.738 63.8131 622.023 64.7756 623.389C70.1497 631.502 75.8447 639.536 82.0209 647.649C82.3417 648.051 82.7427 648.533 83.1438 648.935C144.986 726.697 243.244 776.262 357.222 776.262C552.053 776.262 702.688 629.896 702.688 446.496V444.729C702.688 354.435 666.594 273.62 606.676 214.817H606.757ZM302.519 42.8244C302.519 42.8244 345.191 125.406 288.322 200.919L281.905 161.074L194.797 200.919L217.255 130.387L163.194 142.598C163.194 142.598 297.065 60.9796 302.519 42.9048V42.8244Z" fill="#4678EE"/>
</svg>
