<svg width="820" height="1028" viewBox="0 0 720 1028" fill="none" xmlns="http://www.w3.org/2000/svg">
<path d="M1323.37 164.378C1414.6 276.284 1469.49 418.906 1469.49 574.44C1469.49 932.853 1179.4 1223.38 821.536 1223.38C657.448 1223.38 507.816 1162.14 393.54 1061.39C347.439 1017.96 221.444 870.835 408.582 701.019C408.582 701.019 305.636 641.936 229.843 783.384C219.295 683.216 253.675 558.006 408.582 428.101C552.158 307.978 645.337 137.379 651.197 -51.6096C651.392 -58.4571 651.392 -65.1089 651.392 -71.7606C651.197 -163.907 629.905 -260.162 583.804 -356.809C589.86 -331.18 569.153 -246.076 213.435 -41.2407C-121.578 151.661 -301.097 688.107 -3.00478 1149.62C-1.05135 1152.95 1.09731 1156.08 3.44142 1159.41C16.5294 1179.16 30.3987 1198.73 45.4401 1218.49C46.2215 1219.47 47.1981 1220.64 48.1749 1221.62C198.784 1411 438.078 1531.71 715.66 1531.71C1190.15 1531.71 1557 1175.25 1557 728.605V724.301C1557 504.401 1469.1 307.586 1323.18 164.378H1323.37ZM582.437 -254.489C582.437 -254.489 686.359 -53.3704 547.861 130.532L532.233 33.494L320.092 130.532L374.787 -41.2407L243.127 -11.5033C243.127 -11.5033 569.153 -210.274 582.437 -254.293V-254.489Z" fill="#F8FAFC"/>
</svg>
